PathFileType	4	(X/Y/Z)	10_1_11_p1_0-557_filt_butterworth.trc
DataRate	CameraRate	NumFrames	NumMarkers	Units	OrigDataRate	OrigDataStartFrame	OrigNumFrames
60.0	60.0	5	27	m	60.0	348	557
Frame#	Time	RHip			RKnee			RAnkle			RBigToe			RSmallToe			RHeel			LHip			LKnee			LAnkle			LBigToe			LSmallToe			LHeel			Neck			Head			Nose			RShoulder			RElbow			RWrist			RThumb			RIndex			RPinky			LShoulder			LElbow			LWrist			LThumb			LIndex			LPinky			
		X1	Y1	Z1	X2	Y2	Z2	X3	Y3	Z3	X4	Y4	Z4	X5	Y5	Z5	X6	Y6	Z6	X7	Y7	Z7	X8	Y8	Z8	X9	Y9	Z9	X10	Y10	Z10	X11	Y11	Z11	X12	Y12	Z12	X13	Y13	Z13	X14	Y14	Z14	X15	Y15	Z15	X16	Y16	Z16	X17	Y17	Z17	X18	Y18	Z18	X19	Y19	Z19	X20	Y20	Z20	X21	Y21	Z21	X22	Y22	Z22	X23	Y23	Z23	X24	Y24	Z24	X25	Y25	Z25	X26	Y26	Z26	X27	Y27	Z27	
348	5.8	0.29955664132946397	0.7249042383057718	0.7294372089846993	0.3083046536737573	0.2991592266896882	0.7326452230018965	0.30133921821460946	-0.10660148552544987	0.7687623936691479	0.284138934251539	-0.14450791812084013	0.5773613151766066	0.352897489262901	-0.1344833952582756	0.6054107292844297	0.25921248198282254	-0.19634047070352606	0.8417472278985896	0.09673433481997679	0.7301907581952138	0.7247586306512575	0.08513173715782753	0.3141899343870915	0.7241940768765514	0.07583109429228348	-0.08404501265401912	0.7504522111054807	0.09738939772584132	-0.15728974198669157	0.5844854571583961	0.04608044536602591	-0.1401248439646846	0.6131397680197245	0.08805540095305878	-0.14387037669165526	0.7965885651319968	0.19908400448821192	1.2499357446053423	0.7477945272996132	0.17493606883276375	1.5250750833881879	0.6012752743572546	0.17786466823875652	1.361766980553915	0.5744602154608747	0.35644929395155467	1.2025008378604074	0.7315454443864745	0.46657099717284917	0.9603071207896436	0.6960604869903184	0.4659622844212914	1.0959019761867501	0.5644014456213102	0.4241812861660998	1.2393445799782483	0.517478613513114	0.45871131064560644	1.2286766178573925	0.5177846844786058	0.48053913352379485	1.1665545845592196	0.5070382386730481	0.054218606575206364	1.2060087999499065	0.7419031472267612	-0.06443708064437038	0.9560734147342921	0.7342516285921568	-0.08257986750477954	1.115883176769141	0.6046871900611902	-0.05691046525728839	1.2163946298229686	0.5611165093637359	-0.09417724745435468	1.2184416452878508	0.5591791072996143	-0.11882285546621581	1.1884909451971728	0.5455054595174837	
349	5.816666666666666	0.29969773433228786	0.7299540817043962	0.7271204071466183	0.30732888349536036	0.3000594827571904	0.7309722093652457	0.30055803429847466	-0.10619872598371703	0.7672100960980233	0.28410211309763844	-0.14431077492728428	0.5771766280891051	0.3521745896445517	-0.13642684108764733	0.6081944720204973	0.2587002737909248	-0.19614728428315864	0.8401398185656874	0.09664534862988944	0.7335121614185673	0.7227984817148367	0.08518163576580319	0.31631555293470487	0.7229570076249102	0.07612516950505642	-0.08295835863525816	0.7502307850392708	0.09534376316240584	-0.16049189273859688	0.5891354949690644	0.045224032161565494	-0.1412227370006019	0.6152804985690117	0.08880191016085233	-0.14248832963977107	0.7946326647828037	0.19777438116661283	1.2514921522046534	0.7535470591321645	0.1754123748945443	1.524932004063363	0.6070989232516286	0.1782939117250496	1.3637869258232715	0.5764564328181947	0.3540898104730455	1.2051481167064537	0.7292683947074107	0.4732049789744198	0.9606750831585167	0.6908572325762364	0.46402067259527646	1.1117637259444633	0.5783618383914437	0.39557155735118027	1.2567414184378394	0.565884746221341	0.4329416832504812	1.2525773307903316	0.5684181053688854	0.46415777170113615	1.1865417507672593	0.5504989019413513	0.055477707685071806	1.2101876848399147	0.7467271628284031	-0.08061084129793217	0.959242650501244	0.7293242786835921	-0.0768586742014711	1.1290685950213957	0.6150326187529203	-0.025865734498045613	1.2313594827139704	0.5891771620066439	-0.06542942176389725	1.239721775794254	0.589323491049622	-0.09520903219265878	1.2111072115761683	0.5653424421619527	
350	5.833333333333333	0.29981370782134625	0.7343404906169952	0.7245154050037158	0.3062393779946224	0.3010411085168708	0.7288972340177893	0.2997694749409859	-0.10594322660472245	0.7656174590697016	0.2841111686850958	-0.14393167508787388	0.5767263886253546	0.35186620379101163	-0.1382370805482057	0.6107310059389078	0.2583545360053194	-0.1962800868657439	0.8387746402325666	0.09618366170904179	0.7360382571559911	0.7206784951399491	0.0850738744891224	0.31819603714379596	0.7215276791447962	0.07642247791658077	-0.08217113352690335	0.7500027415246334	0.09378088612348603	-0.1636023885372011	0.5928152036587709	0.04452452862271408	-0.14194757328959282	0.6170247037153324	0.0896176336007267	-0.14159768915084034	0.7933576419166621	0.1960298574305207	1.253421619173978	0.7582911975490295	0.17613460893067623	1.5250881952544977	0.6131855913349049	0.17835582239147008	1.3661853910791673	0.5795234686052919	0.3518808657058725	1.2087151050084481	0.7265546983283754	0.48011506827415995	0.9653689880402543	0.6824714799203269	0.4628938073803107	1.1271118990171551	0.58693747681249	0.36833718397063886	1.2614353623082106	0.6133521151119881	0.40209323355735405	1.2649152271027502	0.6133953073643523	0.44003576093645963	1.1980062043657373	0.5823027147573498	0.056308168644607415	1.2133549248218978	0.7527499411745953	-0.09640114117152204	0.9659844467389922	0.7234251839429893	-0.070664182186398	1.1388410985888795	0.6261334875886074	0.002067769509464918	1.2344216254534959	0.6222954280093079	-0.034453576695159985	1.2502949204779652	0.619341559334694	-0.0689115679512837	1.2249807378598891	0.5743204993211009	
351	5.85	0.2997397604973429	0.7377324292324217	0.7215828788662781	0.3050973154967715	0.3021639626088337	0.7263924377540153	0.2989930637963066	-0.10586281775422209	0.7640065833519	0.28422753409542967	-0.1436354821127042	0.5763102890743819	0.35197974428019785	-0.13969408146149445	0.6126859085057773	0.2581709701234747	-0.19664430531774574	0.8376696366789547	0.09538004757902784	0.7374731690699955	0.718249991882078	0.08482092357394234	0.31963585989735976	0.7199884958716656	0.07672611846372863	-0.08169352869637361	0.7497466622475151	0.09293709062310176	-0.16614580205299767	0.5950523070200647	0.04405238661861604	-0.14232831590636363	0.6180746005575901	0.09043305775556752	-0.14127105702014314	0.7928422017969962	0.1939000915375965	1.255373677686291	0.7616557790331491	0.17731183860792837	1.5253544044823033	0.6193497572930278	0.17790094766425268	1.3686771668885394	0.5833277829446777	0.3500733830468511	1.2130567583552585	0.7238488931709242	0.48663335057061374	0.9737701938293186	0.6710723197207877	0.4638559876560169	1.1414416410592139	0.5902946902423223	0.346918777632676	1.257644842410611	0.6539388064772015	0.3716768750249497	1.2666760121584888	0.6496403531271286	0.41297371571175145	1.2007192115418073	0.6017881990190062	0.05651743664954505	1.2149992414716975	0.7587577625897038	-0.11055613250264876	0.974709030649836	0.7169893822114586	-0.06466399376933506	1.1456618343294802	0.6362842051539748	0.02455841399442006	1.2276303683189502	0.6580407009081801	-0.004651762514853526	1.2516542532213646	0.6458669265228936	-0.04359051988434924	1.2308800994942828	0.5735025768730938	
352	5.866666666666666	0.29935774110010455	0.7402414303148079	0.7182481862005519	0.30393912699512077	0.3034508363930961	0.7235157222942292	0.2982499822650773	-0.10594791608794639	0.7624399586708506	0.2844415056023271	-0.14401852348391492	0.5766305359195928	0.35234376763457587	-0.14062975420128715	0.6138224801869065	0.2581596970413684	-0.1972223794547356	0.8369299738505215	0.09437183003393575	0.7379648155677031	0.7157312849272248	0.08443004259873342	0.32056829158010186	0.718467734547672	0.07700745939995385	-0.08163895541585091	0.7494819679886645	0.09282239960870983	-0.1678210400890599	0.5956392933962718	0.0438193583675795	-0.14246823290857685	0.6183680417003098	0.09120449653682129	-0.14161799677910494	0.7930825400904862	0.19156418995984442	1.256800707309595	0.7634091814701227	0.17909285836487374	1.525488448576366	0.6256019121331894	0.17698844055796897	1.370829906688395	0.5873702535914993	0.34887844640225896	1.217603224975971	0.7216138043391545	0.49240203681452543	0.9839299463500222	0.6579065387376826	0.46728463793551966	1.1542344661944617	0.5898115337398876	0.33343022366524167	1.2510098033572445	0.6823648152237791	0.3469256198347331	1.2616288784387297	0.6758550697652423	0.38850388971234373	1.1966827297663298	0.6111500271078472	0.056105397709844185	1.2148515575364587	0.7634105048189743	-0.122078061496572	0.9836385366143059	0.7106751184946749	-0.0598570440045709	1.1506381846430533	0.6435189320334755	0.040607685481080666	1.215413075155272	0.690927667684168	0.02042754300735364	1.2471248478674015	0.6655987486375201	-0.022875659661162125	1.2308693413395446	0.5668285331015975	
